<svg height="453pt" viewBox="0 0 453.3342 453" width="453pt" xmlns="http://www.w3.org/2000/svg"><path d="m3 148.894531v213.519531c0 22.816407 18.496094 41.3125 41.3125 41.3125h238.375c22.816406 0 41.3125-18.496093 41.3125-41.3125v-254.996093l-.605469-63.207031c-.21875-22.652344-18.636719-40.90625-41.289062-40.917969l-237.769531-.125c-22.824219-.011719-41.335938 18.488281-41.335938 41.3125zm0 0" fill="#8ac6dd"/><path d="m282.6875 406.730469h-238.375c-24.433594 0-44.3125-19.878907-44.3125-44.316407v-213.519531c0-1.65625 1.34375-3 3-3s3 1.34375 3 3v213.519531c0 21.128907 17.1875 38.316407 38.3125 38.316407h238.375c21.125 0 38.3125-17.1875 38.3125-38.316407v-255l-.609375-63.175781c-.199219-20.914062-17.375-37.9375-38.289063-37.949219l-237.765624-.125c-.007813 0-.015626 0-.023438 0-10.226562 0-19.847656 3.984376-27.085938 11.214844-7.238281 7.238282-11.226562 16.863282-11.226562 27.101563v77.914062c0 1.65625-1.34375 3-3 3s-3-1.34375-3-3v-77.914062c0-11.839844 4.613281-22.96875 12.988281-31.339844 8.367188-8.371094 19.492188-12.972656 31.324219-12.972656h.027344l237.765625.125c24.1875.011719 44.054687 19.699219 44.289062 43.886719l.609375 63.207031v255.027343c-.003906 24.433594-19.882812 44.316407-44.316406 44.316407zm0 0" fill="#3a312a"/><path d="m227.742188 449.726562h100.550781c23.050781 0 41.707031-18.65625 41.707031-41.707031v-254.601562l-104.269531-104.273438h-175.023438c-23.050781 0-41.707031 18.65625-41.707031 41.707031v317.164063c0 23.054687 18.65625 41.710937 41.707031 41.710937zm0 0" fill="#f7e3c7"/><g fill="#3a312a"><path d="m328.289062 452.730469h-100.546874c-1.65625 0-3-1.34375-3-3s1.34375-3 3-3h100.546874c21.34375 0 38.710938-17.367188 38.710938-38.710938v-253.363281l-102.515625-102.507812h-173.777344c-21.34375 0-38.707031 17.363281-38.707031 38.703124v317.167969c0 21.34375 17.367188 38.707031 38.707031 38.707031h111.546875c1.65625 0 3 1.34375 3 3s-1.34375 3-3 3h-111.546875c-24.652343 0-44.707031-20.054687-44.707031-44.707031v-317.167969c0-24.652343 20.054688-44.703124 44.707031-44.703124h175.019531c.796876 0 1.558594.316406 2.125.875l104.269532 104.273437c.5625.558594.878906 1.324219.878906 2.121094v254.601562c0 24.652344-20.054688 44.710938-44.710938 44.710938zm0 0"/><path d="m311.015625 183.3125h-203.03125c-1.65625 0-3-1.34375-3-3s1.34375-3 3-3h203.03125c1.65625 0 3 1.34375 3 3s-1.34375 3-3 3zm0 0"/><path d="m311.015625 233.085938h-203.03125c-1.65625 0-3-1.34375-3-3s1.34375-3 3-3h203.03125c1.65625 0 3 1.34375 3 3s-1.34375 3-3 3zm0 0"/><path d="m311.015625 282.859375h-203.03125c-1.65625 0-3-1.34375-3-3s1.34375-3 3-3h203.03125c1.65625 0 3 1.34375 3 3s-1.34375 3-3 3zm0 0"/><path d="m311.015625 332.632812h-203.03125c-1.65625 0-3-1.34375-3-3s1.34375-3 3-3h203.03125c1.65625 0 3 1.34375 3 3s-1.34375 3-3 3zm0 0"/><path d="m311.015625 382.40625h-203.03125c-1.65625 0-3-1.34375-3-3s1.34375-3 3-3h203.03125c1.65625 0 3 1.34375 3 3s-1.34375 3-3 3zm0 0"/></g><path d="m227.003906 137.25h-108.792968c-5.648438 0-10.226563-4.578125-10.226563-10.226562v-11.859376c0-5.648437 4.578125-10.226562 10.226563-10.226562h108.792968c5.644532 0 10.222656 4.578125 10.222656 10.226562v11.859376c0 5.648437-4.578124 10.226562-10.222656 10.226562zm0 0" fill="#f16c7a"/><path d="m227.003906 140.25h-108.792968c-7.292969 0-13.226563-5.933594-13.226563-13.226562v-11.859376c0-7.292968 5.933594-13.226562 13.226563-13.226562h108.792968c7.292969 0 13.222656 5.933594 13.222656 13.226562v11.859376c0 7.296874-5.929687 13.226562-13.222656 13.226562zm-108.792968-32.3125c-3.984376 0-7.226563 3.242188-7.226563 7.226562v11.859376c0 3.984374 3.242187 7.226562 7.226563 7.226562h108.792968c3.980469 0 7.222656-3.242188 7.222656-7.226562v-11.859376c0-3.984374-3.242187-7.226562-7.222656-7.226562zm0 0" fill="#3a312a"/><path d="m370 153.417969v.257812h-67.335938c-20.28125 0-36.71875-16.441406-36.71875-36.71875v-67.597656zm0 0" fill="#f7e3c7"/><path d="m370 156.675781h-67.335938c-21.902343 0-39.71875-17.820312-39.71875-39.71875v-67.597656c0-1.210937.730469-2.304687 1.851563-2.769531 1.117187-.464844 2.410156-.207032 3.269531.648437l104.054688 104.054688c.5625.5625.878906 1.324219.878906 2.121093v.261719c0 1.65625-1.34375 3-3 3zm-101.054688-100.074219v60.355469c0 18.59375 15.125 33.71875 33.71875 33.71875h60.355469zm0 0" fill="#3a312a"/><path d="m351.167969 250.484375 99.167969 104.472656h-49.609376v94.523438h-99.117187v-94.523438h-49.609375zm0 0" fill="#f16c7a"/><path d="m400.726562 452.480469h-99.117187c-1.65625 0-3-1.34375-3-3v-91.523438h-46.613281c-1.199219 0-2.28125-.714843-2.753906-1.816406-.472657-1.101563-.246094-2.378906.578124-3.246094l99.167969-104.472656c1.132813-1.195313 3.21875-1.195313 4.355469 0l99.167969 104.472656c.824219.867188 1.050781 2.144531.578125 3.246094s-1.554688 1.816406-2.753906 1.816406h-46.613282v91.523438c.003906 1.65625-1.339844 3-2.996094 3zm-96.117187-6h93.117187v-91.523438c0-1.65625 1.34375-3 3-3h42.625l-92.183593-97.117187-92.183594 97.117187h42.625c1.65625 0 3 1.34375 3 3zm0 0" fill="#3a312a"/><path d="m422.554688 22.710938s6.816406 25.316406 26.445312 26.488281c0 0-26.199219 9.050781-26.640625 28.40625 0 0-5.160156-27.144531-25.851563-28.117188 0 0 24.101563-3.652343 26.046876-26.777343zm0 0" fill="#d7e057"/><path d="m422.355469 80.605469c-1.425781 0-2.667969-1.011719-2.945313-2.4375-.046875-.246094-4.988281-24.832031-23.042968-25.683594-1.539063-.074219-2.773438-1.300781-2.855469-2.84375-.078125-1.539063 1.023437-2.886719 2.546875-3.121094.882812-.136719 21.789062-3.632812 23.507812-24.0625.121094-1.453125 1.269532-2.605469 2.71875-2.734375 1.460938-.121094 2.785156.796875 3.167969 2.203125.0625.230469 6.515625 23.25 23.726563 24.28125 1.425781.085938 2.59375 1.167969 2.789062 2.585938.195312 1.414062-.636719 2.773437-1.988281 3.242187-.242188.082032-24.238281 8.621094-24.625 25.640625-.035157 1.535157-1.222657 2.792969-2.75 2.917969-.082031.007812-.164063.011719-.25.011719zm-15.484375-31.457031c7.757812 3.9375 12.460937 11.492187 15.175781 17.753906 4.050781-8.042969 11.882813-13.578125 17.898437-16.855469-8.269531-3.6875-13.566406-11.304687-16.667968-17.449219-3.585938 8.722656-10.542969 13.738282-16.40625 16.550782zm0 0" fill="#3a312a"/><path d="m379.15625 56.667969s4.824219 17.910156 18.707031 18.738281c0 0-18.535156 6.402344-18.84375 20.089844 0 0-3.648437-19.199219-18.285156-19.886719 0 0 17.046875-2.582031 18.421875-18.941406zm0 0" fill="#d7e057"/><path d="m379.019531 98.5c-1.429687 0-2.675781-1.015625-2.949219-2.441406-.03125-.164063-3.40625-16.882813-15.476562-17.453125-1.542969-.070313-2.777344-1.296875-2.855469-2.839844-.082031-1.539063 1.023438-2.886719 2.546875-3.121094.589844-.09375 14.726563-2.484375 15.878906-16.226562.125-1.453125 1.273438-2.605469 2.722657-2.738281 1.445312-.121094 2.785156.800781 3.164062 2.207031.042969.15625 4.457031 15.839843 15.988281 16.527343 1.429688.085938 2.597657 1.167969 2.792969 2.585938.195313 1.417969-.640625 2.777344-1.992187 3.246094-.160156.054687-16.566406 5.90625-16.824219 17.324218-.035156 1.53125-1.222656 2.792969-2.75 2.921876-.082031.003906-.164063.007812-.246094.007812zm-9.042969-23.054688c4.214844 2.664063 7.046876 6.789063 8.894532 10.558594 2.753906-4.464844 7.03125-7.746094 10.730468-9.945312-4.574218-2.542969-7.769531-6.703125-9.882812-10.449219-2.347656 4.574219-6.027344 7.753906-9.742188 9.835937zm0 0" fill="#3a312a"/><path d="m379.15625 3.355469s4.824219 17.90625 18.707031 18.738281c0 0-18.535156 6.402344-18.84375 20.089844 0 0-3.648437-19.199219-18.285156-19.886719 0 0 17.046875-2.582031 18.421875-18.941406zm0 0" fill="#d7e057"/><path d="m379.019531 45.183594c-1.429687 0-2.675781-1.011719-2.949219-2.4375-.03125-.164063-3.40625-16.886719-15.476562-17.453125-1.542969-.070313-2.777344-1.300781-2.855469-2.84375-.082031-1.539063 1.023438-2.886719 2.546875-3.121094.589844-.09375 14.726563-2.484375 15.878906-16.226563.125-1.449218 1.273438-2.605468 2.722657-2.734374 1.445312-.121094 2.785156.796874 3.164062 2.203124.042969.160157 4.457031 15.839844 15.988281 16.53125 1.429688.082032 2.597657 1.167969 2.792969 2.585938.195313 1.417969-.640625 2.777344-1.992187 3.242188-.160156.058593-16.566406 5.90625-16.824219 17.324218-.035156 1.535156-1.222656 2.796875-2.75 2.921875-.082031.003907-.164063.007813-.246094.007813zm-9.042969-23.054688c4.214844 2.667969 7.046876 6.789063 8.894532 10.558594 2.753906-4.460938 7.03125-7.742188 10.730468-9.945312-4.574218-2.535157-7.769531-6.699219-9.882812-10.445313-2.347656 4.574219-6.027344 7.75-9.742188 9.832031zm0 0" fill="#3a312a"/><path d="m337 156.671875v104.378906l12-12.640625c1.121094-1.179687 3.21875-1.179687 4.339844 0l13.660156 14.402344v-106.140625zm0 0" fill="#decaad"/></svg>